<svg width="31" height="31" viewBox="0 0 31 31" fill="none" xmlns="http://www.w3.org/2000/svg">
<path d="M15.4765 27.4916C21.9916 27.4916 27.2731 22.2101 27.2731 15.6949C27.2731 9.17981 21.9916 3.89826 15.4765 3.89826C8.96133 3.89826 3.67979 9.17981 3.67979 15.6949C3.67979 22.2101 8.96133 27.4916 15.4765 27.4916ZM15.4765 30.4408C7.33255 30.4408 0.730621 23.8388 0.730621 15.6949C0.730621 7.55103 7.33255 0.949097 15.4765 0.949097C23.6203 0.949097 30.2223 7.55103 30.2223 15.6949C30.2223 23.8388 23.6203 30.4408 15.4765 30.4408ZM10.8907 17.4214L7.20714 16.2716C6.411 16.0274 6.40626 15.4796 7.3854 15.0861L21.7376 9.54229C22.57 9.20151 23.0433 9.63206 22.7735 10.7055L20.3289 22.2387C20.1587 23.0591 19.6639 23.2545 18.9785 22.8759L15.217 20.0926L13.4638 21.7845C13.2836 21.9584 13.1371 22.1077 12.861 22.1452C12.5848 22.1825 12.3572 22.1008 12.1917 21.643L10.9094 17.4096L10.8907 17.4214Z" fill="white"/>
</svg>
