<svg width="27" height="27" viewBox="0 0 27 27" fill="none" xmlns="http://www.w3.org/2000/svg">
<path d="M1.90036 0.423828H25.4937C26.3081 0.423828 26.9683 1.08403 26.9683 1.89841V25.4917C26.9683 26.3062 26.3081 26.9663 25.4937 26.9663H1.90036C1.08597 26.9663 0.425781 26.3062 0.425781 25.4917V1.89841C0.425781 1.08403 1.08597 0.423828 1.90036 0.423828ZM21.5137 19.5054C21.3655 19.4314 21.2915 19.2091 21.2915 19.0611V7.80623C21.2915 7.65813 21.3655 7.436 21.5137 7.28791L22.9206 5.65891V5.58487H17.8853L14.1088 15.1366L9.81397 5.58487H4.63057V5.65891L5.96345 7.51004C6.25965 7.80623 6.33368 8.25049 6.33368 8.62073V16.7658C6.40774 17.2099 6.33368 17.7282 6.11154 18.1725L4.11224 20.9123V20.9863H9.44373V20.9123L7.44441 18.2465C7.22227 17.8024 7.14822 17.3581 7.22227 16.8398V9.43521C7.29632 9.58331 7.37036 9.58331 7.44441 9.87949L12.4796 21.1344H12.5538L17.441 8.9169C17.3669 9.36117 17.3669 9.87949 17.3669 10.2497V18.9871C17.3669 19.2091 17.2928 19.3573 17.1448 19.5054L15.6639 20.9123V20.9863H22.9206V20.9123L21.5137 19.5054Z" fill="white"/>
</svg>
