<svg width="226" height="49" viewBox="0 0 226 49" fill="none" xmlns="http://www.w3.org/2000/svg">
<path d="M85.16 33.4366C85.16 34.3646 84.824 35.1646 84.152 35.8366C83.512 36.4766 82.728 36.7966 81.8 36.7966H68.36V33.4366H81.32V26.7166H71.72C70.792 26.7166 69.992 26.3966 69.32 25.7566C68.68 25.0846 68.36 24.2846 68.36 23.3566V16.6366C68.36 15.7086 68.68 14.9246 69.32 14.2846C69.992 13.6126 70.792 13.2766 71.72 13.2766H85.16V16.6366H72.2V23.3566H81.8C82.728 23.3566 83.512 23.6926 84.152 24.3646C84.824 25.0046 85.16 25.7886 85.16 26.7166V33.4366ZM115.171 33.4366C115.171 34.3646 114.835 35.1646 114.163 35.8366C113.523 36.4766 112.739 36.7966 111.811 36.7966H98.3712C97.4432 36.7966 96.6432 36.4766 95.9712 35.8366C95.3312 35.1646 95.0112 34.3646 95.0112 33.4366V16.6366C95.0112 15.7086 95.3312 14.9246 95.9712 14.2846C96.6432 13.6126 97.4432 13.2766 98.3712 13.2766H111.811C112.739 13.2766 113.523 13.6126 114.163 14.2846C114.835 14.9246 115.171 15.7086 115.171 16.6366V33.4366ZM111.331 33.4366V16.6366H98.8512V33.4366H111.331ZM142.764 36.7966H125.964V13.2766H129.804V33.4366H138.924V30.0766H142.764V36.7966ZM170.133 36.7966H166.293V30.0766H153.813V36.7966H149.973V16.6366C149.973 15.7086 150.293 14.9246 150.933 14.2846C151.605 13.6126 152.405 13.2766 153.333 13.2766H170.133V36.7966ZM166.293 26.7166V16.6366H153.813V29.5966L156.693 26.7166H166.293ZM201.794 36.7966H196.898L186.914 26.7166H197.474V16.6366H184.994V36.7966H181.154V19.9486L184.514 16.6366H181.154V13.2766H197.954C198.85 13.2766 199.634 13.6126 200.306 14.2846C200.978 14.9566 201.314 15.7406 201.314 16.6366V25.7566C201.314 28.3166 200.194 29.5966 197.954 29.5966H195.074V30.1246L201.794 36.7966ZM224.844 16.6366H217.884V36.7966H214.044V16.6366H207.084V13.2766H224.844V16.6366Z" fill="white"/>
<g clip-path="url(#clip0_6001_651)">
<g filter="url(#filter0_f_6001_651)">
<path d="M25.2959 46.0964C37.197 46.0964 46.8447 36.4487 46.8447 24.5476C46.8447 12.6465 37.197 2.99878 25.2959 2.99878C13.3948 2.99878 3.74707 12.6465 3.74707 24.5476C3.74707 36.4487 13.3948 46.0964 25.2959 46.0964Z" stroke="#FFB700" stroke-width="0.598578" stroke-miterlimit="10" stroke-linecap="round"/>
</g>
<path d="M25.2959 46.0964C37.197 46.0964 46.8447 36.4487 46.8447 24.5476C46.8447 12.6465 37.197 2.99878 25.2959 2.99878C13.3948 2.99878 3.74707 12.6465 3.74707 24.5476C3.74707 36.4487 13.3948 46.0964 25.2959 46.0964Z" stroke="#FFB700" stroke-width="0.598578" stroke-miterlimit="10" stroke-linecap="round"/>
<path d="M0.20352 30.2761C-1.07744 20.6988 3.74711 10.6367 12.217 6.12342C14.7798 4.72108 17.5958 3.84213 20.5013 3.5376C12.9293 6.18331 7.26674 13.5159 7.15301 21.4949C7.08546 23.868 7.49247 26.2307 8.35016 28.4444C8.57345 29.0124 8.67144 29.6219 8.63743 30.2312C8.60342 30.8405 8.43821 31.4353 8.1531 31.9749C7.86799 32.5145 7.46971 32.9861 6.9855 33.3575C6.50128 33.729 5.94254 33.9915 5.34752 34.1271C4.75249 34.2626 4.13519 34.2681 3.53786 34.1431C2.94053 34.018 2.37726 33.7655 1.88655 33.4027C1.39584 33.0398 0.98926 32.5753 0.694651 32.0409C0.400041 31.5064 0.224339 30.9146 0.179553 30.306L0.20352 30.2761Z" fill="url(#paint0_linear_6001_651)"/>
<path d="M43.4987 42.7503C36.0704 48.9217 24.9787 50.1907 16.6525 45.42C14.0961 44.0073 11.8458 42.1009 10.0322 39.8113C16.2993 44.8094 25.5234 45.7073 32.3173 41.5771C34.3666 40.3563 36.1514 38.7384 37.5668 36.8184C37.9289 36.3273 38.3927 35.9202 38.9266 35.6248C39.4604 35.3295 40.0518 35.1529 40.6602 35.1072C41.2686 35.0614 41.8797 35.1475 42.4517 35.3597C43.0238 35.5719 43.5433 35.9051 43.9747 36.3365C44.4061 36.7679 44.7393 37.2874 44.9514 37.8594C45.1636 38.4315 45.2498 39.0426 45.204 39.651C45.1582 40.2594 44.9817 40.8508 44.6863 41.3846C44.391 41.9185 43.9839 42.3823 43.4928 42.7444L43.4987 42.7503Z" fill="url(#paint1_linear_6001_651)"/>
<path d="M34.6156 0.556706C43.2591 4.86049 48.8917 14.4976 47.8861 24.0449C47.6105 26.9508 46.76 29.773 45.384 32.3472C46.0626 29.7191 46.2099 26.982 45.8173 24.2963C45.4246 21.6106 44.5 19.0302 43.0974 16.7064C41.832 14.6178 40.161 12.8038 38.183 11.3717C36.205 9.93959 33.96 8.9183 31.5808 8.36815C30.9853 8.23486 30.4257 7.97458 29.9401 7.60505C29.4545 7.23553 29.0545 6.76548 28.7673 6.22709C28.4801 5.6887 28.3125 5.09464 28.2761 4.48553C28.2397 3.87643 28.3352 3.26665 28.5562 2.69787C28.7772 2.12909 29.1184 1.61471 29.5565 1.18996C29.9946 0.765198 30.5192 0.440076 31.0946 0.236775C31.6699 0.0334746 32.2823 -0.0432037 32.89 0.0120162C33.4977 0.0672361 34.0863 0.253033 34.6156 0.556706Z" fill="url(#paint2_linear_6001_651)"/>
<circle cx="25.1401" cy="24.5417" r="11.373" fill="url(#paint3_linear_6001_651)"/>
</g>
<defs>
<filter id="filter0_f_6001_651" x="-2.05917" y="-2.80746" width="54.7101" height="54.7101" filterUnits="userSpaceOnUse" color-interpolation-filters="sRGB">
<feFlood flood-opacity="0" result="BackgroundImageFix"/>
<feBlend mode="normal" in="SourceGraphic" in2="BackgroundImageFix" result="shape"/>
<feGaussianBlur stdDeviation="2.75346" result="effect1_foregroundBlur_6001_651"/>
</filter>
<linearGradient id="paint0_linear_6001_651" x1="17.6581" y1="3.59145" x2="2.09507" y2="32.3232" gradientUnits="userSpaceOnUse">
<stop stop-color="#FFB700"/>
<stop offset="0.0001" stop-color="#FF8A00"/>
<stop offset="1" stop-color="#FFB700"/>
</linearGradient>
<linearGradient id="paint1_linear_6001_651" x1="40.3368" y1="35.1184" x2="38.1988" y2="50.839" gradientUnits="userSpaceOnUse">
<stop stop-color="#FFB700"/>
<stop offset="0.0001" stop-color="#FF8A00"/>
<stop offset="1" stop-color="#FFB700"/>
</linearGradient>
<linearGradient id="paint2_linear_6001_651" x1="45.2654" y1="0.0513877" x2="28.0792" y2="29.0254" gradientUnits="userSpaceOnUse">
<stop stop-color="#FFB700"/>
<stop offset="0.0001" stop-color="#FF8A00"/>
<stop offset="1" stop-color="#FFB700"/>
</linearGradient>
<linearGradient id="paint3_linear_6001_651" x1="33.3587" y1="13.2086" x2="24.5489" y2="37.559" gradientUnits="userSpaceOnUse">
<stop stop-color="#FFB700"/>
<stop offset="0.0001" stop-color="#FF8A00"/>
<stop offset="1" stop-color="#FFB700"/>
</linearGradient>
<clipPath id="clip0_6001_651">
<rect width="48" height="48.3232" fill="white"/>
</clipPath>
</defs>
</svg>
