<svg width="1211" height="654" viewBox="0 0 1211 654" fill="none" xmlns="http://www.w3.org/2000/svg">
<path d="M0 102H517.945L1012 332" stroke="url(#paint0_linear_6002_1337)"/>
<path d="M124 269H531.5L1021.5 392" stroke="url(#paint1_linear_6002_1337)"/>
<path d="M22 390H531.5L1011.5 402.5" stroke="url(#paint2_linear_6002_1337)"/>
<path d="M209.5 521H531.5L1013.5 425.5" stroke="url(#paint3_linear_6002_1337)"/>
<path d="M259.5 653H531.5L1021.5 453.5" stroke="url(#paint4_linear_6002_1337)"/>
<path d="M19 1H621.5L1037.5 332" stroke="url(#paint5_linear_6002_1337)"/>
<circle cx="1100" cy="401" r="110" fill="#191919" stroke="#FFB700"/>
<path d="M1045.8 392C1045.2 392 1044.67 391.872 1044.22 391.616C1043.78 391.349 1043.44 390.992 1043.2 390.544C1042.96 390.085 1042.84 389.573 1042.84 389.008V382.16H1039.44V380.8H1047.79V382.16H1044.38V389.2C1044.38 389.616 1044.51 389.963 1044.76 390.24C1045.03 390.507 1045.38 390.64 1045.82 390.64H1046.56V392H1045.8ZM1054.97 392.208C1054.09 392.208 1053.29 392.059 1052.57 391.76C1051.86 391.451 1051.25 391.029 1050.73 390.496C1050.23 389.963 1049.84 389.344 1049.57 388.64C1049.29 387.936 1049.15 387.184 1049.15 386.384C1049.15 385.595 1049.29 384.848 1049.57 384.144C1049.84 383.44 1050.23 382.821 1050.73 382.288C1051.25 381.755 1051.86 381.339 1052.57 381.04C1053.29 380.741 1054.09 380.592 1054.97 380.592C1055.86 380.592 1056.66 380.741 1057.37 381.04C1058.09 381.339 1058.7 381.755 1059.2 382.288C1059.71 382.821 1060.1 383.44 1060.38 384.144C1060.66 384.848 1060.8 385.6 1060.8 386.4C1060.8 387.189 1060.66 387.936 1060.38 388.64C1060.1 389.344 1059.71 389.963 1059.2 390.496C1058.7 391.029 1058.09 391.451 1057.37 391.76C1056.66 392.059 1055.86 392.208 1054.97 392.208ZM1054.97 390.848C1055.58 390.848 1056.15 390.736 1056.67 390.512C1057.19 390.288 1057.65 389.973 1058.03 389.568C1058.42 389.163 1058.73 388.693 1058.94 388.16C1059.16 387.616 1059.26 387.024 1059.26 386.384C1059.26 385.755 1059.16 385.168 1058.94 384.624C1058.73 384.08 1058.43 383.611 1058.05 383.216C1057.66 382.811 1057.2 382.501 1056.67 382.288C1056.15 382.064 1055.58 381.952 1054.97 381.952C1054.36 381.952 1053.78 382.064 1053.26 382.288C1052.74 382.501 1052.29 382.811 1051.9 383.216C1051.52 383.611 1051.22 384.08 1051.01 384.624C1050.79 385.168 1050.69 385.76 1050.69 386.4C1050.69 387.029 1050.79 387.616 1051.01 388.16C1051.22 388.693 1051.52 389.163 1051.9 389.568C1052.29 389.973 1052.74 390.288 1053.26 390.512C1053.78 390.736 1054.36 390.848 1054.97 390.848ZM1068.51 392C1067.91 392 1067.38 391.872 1066.93 391.616C1066.49 391.349 1066.15 390.992 1065.91 390.544C1065.67 390.085 1065.55 389.573 1065.55 389.008V382.16H1062.15V380.8H1070.5V382.16H1067.09V389.2C1067.09 389.616 1067.22 389.963 1067.47 390.24C1067.74 390.507 1068.09 390.64 1068.53 390.64H1069.27V392H1068.51ZM1071.06 392L1074.87 381.872C1075.04 381.435 1075.28 381.115 1075.58 380.912C1075.87 380.709 1076.22 380.608 1076.62 380.608C1077.01 380.608 1077.36 380.709 1077.66 380.912C1077.96 381.104 1078.2 381.419 1078.36 381.856L1082.18 392H1080.5L1079.53 389.296H1073.67L1072.68 392H1071.06ZM1074.15 387.936H1079.06L1077.06 382.384C1077.01 382.245 1076.95 382.139 1076.89 382.064C1076.82 381.989 1076.73 381.952 1076.62 381.952C1076.51 381.952 1076.42 381.989 1076.36 382.064C1076.3 382.139 1076.24 382.245 1076.2 382.384L1074.15 387.936ZM1086.85 392C1086.24 392 1085.71 391.872 1085.26 391.616C1084.83 391.349 1084.49 390.992 1084.24 390.544C1084.01 390.085 1083.89 389.573 1083.89 389.008V380.8H1085.42V389.2C1085.42 389.616 1085.55 389.963 1085.81 390.24C1086.08 390.507 1086.42 390.64 1086.85 390.64H1089.86V392H1086.85ZM1097.33 392V390.64H1102.18C1102.55 390.64 1102.87 390.555 1103.14 390.384C1103.41 390.203 1103.62 389.973 1103.77 389.696C1103.91 389.419 1103.99 389.125 1103.99 388.816C1103.99 388.496 1103.91 388.203 1103.77 387.936C1103.63 387.659 1103.42 387.44 1103.16 387.28C1102.9 387.109 1102.59 387.024 1102.21 387.024H1100.1C1099.47 387.024 1098.92 386.896 1098.44 386.64C1097.96 386.373 1097.58 386.011 1097.3 385.552C1097.03 385.083 1096.9 384.555 1096.9 383.968C1096.9 383.371 1097.03 382.832 1097.29 382.352C1097.55 381.872 1097.92 381.493 1098.39 381.216C1098.87 380.939 1099.42 380.8 1100.04 380.8H1104.79V382.16H1100.18C1099.83 382.16 1099.52 382.245 1099.25 382.416C1098.99 382.576 1098.78 382.789 1098.65 383.056C1098.51 383.312 1098.44 383.589 1098.44 383.888C1098.44 384.176 1098.5 384.453 1098.63 384.72C1098.77 384.976 1098.97 385.184 1099.22 385.344C1099.49 385.504 1099.79 385.584 1100.13 385.584H1102.29C1102.97 385.584 1103.54 385.717 1104.02 385.984C1104.5 386.251 1104.87 386.613 1105.13 387.072C1105.38 387.531 1105.51 388.053 1105.51 388.64C1105.51 389.291 1105.38 389.872 1105.11 390.384C1104.85 390.885 1104.49 391.28 1104.01 391.568C1103.53 391.856 1102.98 392 1102.36 392H1097.33ZM1112.61 392.192C1111.75 392.192 1110.98 392.011 1110.31 391.648C1109.64 391.285 1109.11 390.763 1108.72 390.08C1108.35 389.397 1108.16 388.592 1108.16 387.664V380.8H1109.7V387.824C1109.7 388.368 1109.82 388.869 1110.05 389.328C1110.29 389.787 1110.62 390.155 1111.06 390.432C1111.5 390.699 1112.02 390.832 1112.61 390.832C1113.21 390.832 1113.73 390.699 1114.16 390.432C1114.6 390.155 1114.93 389.787 1115.16 389.328C1115.39 388.869 1115.51 388.368 1115.51 387.824V380.8H1117.04V387.664C1117.04 388.592 1116.85 389.397 1116.47 390.08C1116.1 390.763 1115.57 391.285 1114.9 391.648C1114.24 392.011 1113.48 392.192 1112.61 392.192ZM1120.23 392V380.8H1124.95C1125.66 380.8 1126.3 380.96 1126.87 381.28C1127.45 381.589 1127.91 382.027 1128.25 382.592C1128.59 383.157 1128.76 383.819 1128.76 384.576C1128.76 385.301 1128.59 385.952 1128.25 386.528C1127.92 387.093 1127.46 387.536 1126.89 387.856C1126.31 388.176 1125.66 388.336 1124.92 388.336H1121.77V392H1120.23ZM1121.77 386.976H1124.74C1125.2 386.976 1125.62 386.885 1125.99 386.704C1126.38 386.512 1126.67 386.235 1126.89 385.872C1127.11 385.509 1127.22 385.077 1127.22 384.576C1127.22 384.064 1127.11 383.632 1126.89 383.28C1126.66 382.917 1126.36 382.64 1125.99 382.448C1125.62 382.256 1125.21 382.16 1124.76 382.16H1121.77V386.976ZM1131.41 392V380.8H1136.13C1136.83 380.8 1137.47 380.96 1138.05 381.28C1138.62 381.589 1139.08 382.027 1139.42 382.592C1139.76 383.157 1139.93 383.819 1139.93 384.576C1139.93 385.301 1139.76 385.952 1139.42 386.528C1139.09 387.093 1138.64 387.536 1138.06 387.856C1137.49 388.176 1136.83 388.336 1136.09 388.336H1132.94V392H1131.41ZM1132.94 386.976H1135.92C1136.38 386.976 1136.79 386.885 1137.17 386.704C1137.55 386.512 1137.85 386.235 1138.06 385.872C1138.29 385.509 1138.4 385.077 1138.4 384.576C1138.4 384.064 1138.29 383.632 1138.06 383.28C1137.84 382.917 1137.54 382.64 1137.17 382.448C1136.79 382.256 1136.38 382.16 1135.93 382.16H1132.94V386.976ZM1145.43 392C1144.82 392 1144.29 391.872 1143.85 391.616C1143.41 391.349 1143.07 390.992 1142.82 390.544C1142.59 390.085 1142.47 389.573 1142.47 389.008V380.8H1144.01V389.2C1144.01 389.616 1144.13 389.963 1144.39 390.24C1144.66 390.507 1145 390.64 1145.43 390.64H1148.44V392H1145.43ZM1154.54 392V388.752C1153.77 388.645 1153.1 388.395 1152.56 388C1152.02 387.595 1151.6 387.072 1151.31 386.432C1151.02 385.792 1150.88 385.072 1150.88 384.272V380.8H1152.42V384.4C1152.42 384.955 1152.53 385.467 1152.75 385.936C1152.99 386.395 1153.32 386.768 1153.74 387.056C1154.18 387.333 1154.71 387.472 1155.33 387.472C1155.95 387.472 1156.47 387.333 1156.9 387.056C1157.33 386.768 1157.66 386.395 1157.89 385.936C1158.11 385.467 1158.22 384.955 1158.22 384.4V380.8H1159.76V384.272C1159.76 385.072 1159.62 385.792 1159.33 386.432C1159.04 387.072 1158.62 387.595 1158.06 388C1157.52 388.405 1156.86 388.656 1156.08 388.752V392H1154.54Z" fill="white" fill-opacity="0.41"/>
<path d="M1034.01 426V423.48H1036.65V414.52H1034.23V412H1039.55V423.48H1041.91V426H1034.01ZM1050.12 426.24C1049.1 426.24 1048.2 426.02 1047.4 425.58C1046.6 425.14 1045.96 424.547 1045.5 423.8C1045.04 423.04 1044.82 422.193 1044.82 421.26V416.74C1044.82 415.807 1045.04 414.967 1045.5 414.22C1045.96 413.46 1046.6 412.86 1047.4 412.42C1048.2 411.98 1049.1 411.76 1050.12 411.76C1051.12 411.76 1052.01 411.98 1052.8 412.42C1053.6 412.86 1054.22 413.46 1054.68 414.22C1055.14 414.967 1055.38 415.807 1055.38 416.74V421.26C1055.38 422.193 1055.14 423.04 1054.68 423.8C1054.22 424.547 1053.6 425.14 1052.8 425.58C1052.01 426.02 1051.12 426.24 1050.12 426.24ZM1050.12 423.72C1050.56 423.72 1050.96 423.62 1051.32 423.42C1051.68 423.207 1051.96 422.927 1052.18 422.58C1052.4 422.233 1052.52 421.853 1052.52 421.44V416.56C1052.52 416.133 1052.4 415.753 1052.18 415.42C1051.96 415.073 1051.68 414.8 1051.32 414.6C1050.96 414.387 1050.56 414.28 1050.12 414.28C1049.68 414.28 1049.27 414.387 1048.9 414.6C1048.52 414.8 1048.22 415.073 1048 415.42C1047.78 415.753 1047.68 416.133 1047.68 416.56V421.44C1047.68 421.853 1047.78 422.233 1048 422.58C1048.22 422.927 1048.52 423.207 1048.9 423.42C1049.27 423.62 1049.68 423.72 1050.12 423.72ZM1064.09 426.24C1063.07 426.24 1062.17 426.02 1061.37 425.58C1060.57 425.14 1059.93 424.547 1059.47 423.8C1059.01 423.04 1058.79 422.193 1058.79 421.26V416.74C1058.79 415.807 1059.01 414.967 1059.47 414.22C1059.93 413.46 1060.57 412.86 1061.37 412.42C1062.17 411.98 1063.07 411.76 1064.09 411.76C1065.09 411.76 1065.98 411.98 1066.77 412.42C1067.57 412.86 1068.19 413.46 1068.65 414.22C1069.11 414.967 1069.35 415.807 1069.35 416.74V421.26C1069.35 422.193 1069.11 423.04 1068.65 423.8C1068.19 424.547 1067.57 425.14 1066.77 425.58C1065.98 426.02 1065.09 426.24 1064.09 426.24ZM1064.09 423.72C1064.53 423.72 1064.93 423.62 1065.29 423.42C1065.65 423.207 1065.93 422.927 1066.15 422.58C1066.37 422.233 1066.49 421.853 1066.49 421.44V416.56C1066.49 416.133 1066.37 415.753 1066.15 415.42C1065.93 415.073 1065.65 414.8 1065.29 414.6C1064.93 414.387 1064.53 414.28 1064.09 414.28C1063.65 414.28 1063.24 414.387 1062.87 414.6C1062.49 414.8 1062.19 415.073 1061.97 415.42C1061.75 415.753 1061.65 416.133 1061.65 416.56V421.44C1061.65 421.853 1061.75 422.233 1061.97 422.58C1062.19 422.927 1062.49 423.207 1062.87 423.42C1063.24 423.62 1063.65 423.72 1064.09 423.72ZM1072.49 429.14L1073.53 426.1C1073.13 425.953 1072.83 425.713 1072.63 425.38C1072.45 425.033 1072.35 424.687 1072.35 424.34C1072.35 423.833 1072.53 423.407 1072.89 423.06C1073.27 422.7 1073.71 422.52 1074.21 422.52C1074.79 422.52 1075.24 422.713 1075.57 423.1C1075.91 423.487 1076.07 423.94 1076.07 424.46C1076.07 424.82 1076.04 425.153 1075.97 425.46C1075.92 425.753 1075.82 426.1 1075.67 426.5L1074.77 429.14H1072.49ZM1084.37 426.24C1083.35 426.24 1082.45 426.02 1081.65 425.58C1080.85 425.14 1080.21 424.547 1079.75 423.8C1079.29 423.04 1079.07 422.193 1079.07 421.26V416.74C1079.07 415.807 1079.29 414.967 1079.75 414.22C1080.21 413.46 1080.85 412.86 1081.65 412.42C1082.45 411.98 1083.35 411.76 1084.37 411.76C1085.37 411.76 1086.26 411.98 1087.05 412.42C1087.85 412.86 1088.47 413.46 1088.93 414.22C1089.39 414.967 1089.63 415.807 1089.63 416.74V421.26C1089.63 422.193 1089.39 423.04 1088.93 423.8C1088.47 424.547 1087.85 425.14 1087.05 425.58C1086.26 426.02 1085.37 426.24 1084.37 426.24ZM1084.37 423.72C1084.81 423.72 1085.21 423.62 1085.57 423.42C1085.93 423.207 1086.21 422.927 1086.43 422.58C1086.65 422.233 1086.77 421.853 1086.77 421.44V416.56C1086.77 416.133 1086.65 415.753 1086.43 415.42C1086.21 415.073 1085.93 414.8 1085.57 414.6C1085.21 414.387 1084.81 414.28 1084.37 414.28C1083.93 414.28 1083.52 414.387 1083.15 414.6C1082.77 414.8 1082.47 415.073 1082.25 415.42C1082.03 415.753 1081.93 416.133 1081.93 416.56V421.44C1081.93 421.853 1082.03 422.233 1082.25 422.58C1082.47 422.927 1082.77 423.207 1083.15 423.42C1083.52 423.62 1083.93 423.72 1084.37 423.72ZM1098.34 426.24C1097.32 426.24 1096.42 426.02 1095.62 425.58C1094.82 425.14 1094.18 424.547 1093.72 423.8C1093.26 423.04 1093.04 422.193 1093.04 421.26V416.74C1093.04 415.807 1093.26 414.967 1093.72 414.22C1094.18 413.46 1094.82 412.86 1095.62 412.42C1096.42 411.98 1097.32 411.76 1098.34 411.76C1099.34 411.76 1100.23 411.98 1101.02 412.42C1101.82 412.86 1102.44 413.46 1102.9 414.22C1103.36 414.967 1103.6 415.807 1103.6 416.74V421.26C1103.6 422.193 1103.36 423.04 1102.9 423.8C1102.44 424.547 1101.82 425.14 1101.02 425.58C1100.23 426.02 1099.34 426.24 1098.34 426.24ZM1098.34 423.72C1098.78 423.72 1099.18 423.62 1099.54 423.42C1099.9 423.207 1100.18 422.927 1100.4 422.58C1100.62 422.233 1100.74 421.853 1100.74 421.44V416.56C1100.74 416.133 1100.62 415.753 1100.4 415.42C1100.18 415.073 1099.9 414.8 1099.54 414.6C1099.18 414.387 1098.78 414.28 1098.34 414.28C1097.9 414.28 1097.49 414.387 1097.12 414.6C1096.74 414.8 1096.44 415.073 1096.22 415.42C1096 415.753 1095.9 416.133 1095.9 416.56V421.44C1095.9 421.853 1096 422.233 1096.22 422.58C1096.44 422.927 1096.74 423.207 1097.12 423.42C1097.49 423.62 1097.9 423.72 1098.34 423.72ZM1112.3 426.24C1111.29 426.24 1110.38 426.02 1109.58 425.58C1108.78 425.14 1108.15 424.547 1107.68 423.8C1107.23 423.04 1107 422.193 1107 421.26V416.74C1107 415.807 1107.23 414.967 1107.68 414.22C1108.15 413.46 1108.78 412.86 1109.58 412.42C1110.38 411.98 1111.29 411.76 1112.3 411.76C1113.3 411.76 1114.2 411.98 1114.98 412.42C1115.78 412.86 1116.41 413.46 1116.86 414.22C1117.33 414.967 1117.56 415.807 1117.56 416.74V421.26C1117.56 422.193 1117.33 423.04 1116.86 423.8C1116.41 424.547 1115.78 425.14 1114.98 425.58C1114.2 426.02 1113.3 426.24 1112.3 426.24ZM1112.3 423.72C1112.74 423.72 1113.14 423.62 1113.5 423.42C1113.86 423.207 1114.15 422.927 1114.36 422.58C1114.59 422.233 1114.7 421.853 1114.7 421.44V416.56C1114.7 416.133 1114.59 415.753 1114.36 415.42C1114.15 415.073 1113.86 414.8 1113.5 414.6C1113.14 414.387 1112.74 414.28 1112.3 414.28C1111.86 414.28 1111.46 414.387 1111.08 414.6C1110.71 414.8 1110.41 415.073 1110.18 415.42C1109.97 415.753 1109.86 416.133 1109.86 416.56V421.44C1109.86 421.853 1109.97 422.233 1110.18 422.58C1110.41 422.927 1110.71 423.207 1111.08 423.42C1111.46 423.62 1111.86 423.72 1112.3 423.72ZM1120.71 429.14L1121.75 426.1C1121.35 425.953 1121.05 425.713 1120.85 425.38C1120.67 425.033 1120.57 424.687 1120.57 424.34C1120.57 423.833 1120.75 423.407 1121.11 423.06C1121.49 422.7 1121.93 422.52 1122.43 422.52C1123.01 422.52 1123.46 422.713 1123.79 423.1C1124.13 423.487 1124.29 423.94 1124.29 424.46C1124.29 424.82 1124.26 425.153 1124.19 425.46C1124.14 425.753 1124.04 426.1 1123.89 426.5L1122.99 429.14H1120.71ZM1132.59 426.24C1131.57 426.24 1130.67 426.02 1129.87 425.58C1129.07 425.14 1128.43 424.547 1127.97 423.8C1127.51 423.04 1127.29 422.193 1127.29 421.26V416.74C1127.29 415.807 1127.51 414.967 1127.97 414.22C1128.43 413.46 1129.07 412.86 1129.87 412.42C1130.67 411.98 1131.57 411.76 1132.59 411.76C1133.59 411.76 1134.48 411.98 1135.27 412.42C1136.07 412.86 1136.69 413.46 1137.15 414.22C1137.61 414.967 1137.85 415.807 1137.85 416.74V421.26C1137.85 422.193 1137.61 423.04 1137.15 423.8C1136.69 424.547 1136.07 425.14 1135.27 425.58C1134.48 426.02 1133.59 426.24 1132.59 426.24ZM1132.59 423.72C1133.03 423.72 1133.43 423.62 1133.79 423.42C1134.15 423.207 1134.43 422.927 1134.65 422.58C1134.87 422.233 1134.99 421.853 1134.99 421.44V416.56C1134.99 416.133 1134.87 415.753 1134.65 415.42C1134.43 415.073 1134.15 414.8 1133.79 414.6C1133.43 414.387 1133.03 414.28 1132.59 414.28C1132.15 414.28 1131.74 414.387 1131.37 414.6C1130.99 414.8 1130.69 415.073 1130.47 415.42C1130.25 415.753 1130.15 416.133 1130.15 416.56V421.44C1130.15 421.853 1130.25 422.233 1130.47 422.58C1130.69 422.927 1130.99 423.207 1131.37 423.42C1131.74 423.62 1132.15 423.72 1132.59 423.72ZM1146.55 426.24C1145.54 426.24 1144.63 426.02 1143.83 425.58C1143.03 425.14 1142.4 424.547 1141.93 423.8C1141.48 423.04 1141.25 422.193 1141.25 421.26V416.74C1141.25 415.807 1141.48 414.967 1141.93 414.22C1142.4 413.46 1143.03 412.86 1143.83 412.42C1144.63 411.98 1145.54 411.76 1146.55 411.76C1147.55 411.76 1148.45 411.98 1149.23 412.42C1150.03 412.86 1150.66 413.46 1151.11 414.22C1151.58 414.967 1151.81 415.807 1151.81 416.74V421.26C1151.81 422.193 1151.58 423.04 1151.11 423.8C1150.66 424.547 1150.03 425.14 1149.23 425.58C1148.45 426.02 1147.55 426.24 1146.55 426.24ZM1146.55 423.72C1146.99 423.72 1147.39 423.62 1147.75 423.42C1148.11 423.207 1148.4 422.927 1148.61 422.58C1148.84 422.233 1148.95 421.853 1148.95 421.44V416.56C1148.95 416.133 1148.84 415.753 1148.61 415.42C1148.4 415.073 1148.11 414.8 1147.75 414.6C1147.39 414.387 1146.99 414.28 1146.55 414.28C1146.11 414.28 1145.71 414.387 1145.33 414.6C1144.96 414.8 1144.66 415.073 1144.43 415.42C1144.22 415.753 1144.11 416.133 1144.11 416.56V421.44C1144.11 421.853 1144.22 422.233 1144.43 422.58C1144.66 422.927 1144.96 423.207 1145.33 423.42C1145.71 423.62 1146.11 423.72 1146.55 423.72ZM1160.52 426.24C1159.51 426.24 1158.6 426.02 1157.8 425.58C1157 425.14 1156.37 424.547 1155.9 423.8C1155.45 423.04 1155.22 422.193 1155.22 421.26V416.74C1155.22 415.807 1155.45 414.967 1155.9 414.22C1156.37 413.46 1157 412.86 1157.8 412.42C1158.6 411.98 1159.51 411.76 1160.52 411.76C1161.52 411.76 1162.42 411.98 1163.2 412.42C1164 412.86 1164.63 413.46 1165.08 414.22C1165.55 414.967 1165.78 415.807 1165.78 416.74V421.26C1165.78 422.193 1165.55 423.04 1165.08 423.8C1164.63 424.547 1164 425.14 1163.2 425.58C1162.42 426.02 1161.52 426.24 1160.52 426.24ZM1160.52 423.72C1160.96 423.72 1161.36 423.62 1161.72 423.42C1162.08 423.207 1162.37 422.927 1162.58 422.58C1162.81 422.233 1162.92 421.853 1162.92 421.44V416.56C1162.92 416.133 1162.81 415.753 1162.58 415.42C1162.37 415.073 1162.08 414.8 1161.72 414.6C1161.36 414.387 1160.96 414.28 1160.52 414.28C1160.08 414.28 1159.68 414.387 1159.3 414.6C1158.93 414.8 1158.63 415.073 1158.4 415.42C1158.19 415.753 1158.08 416.133 1158.08 416.56V421.44C1158.08 421.853 1158.19 422.233 1158.4 422.58C1158.63 422.927 1158.93 423.207 1159.3 423.42C1159.68 423.62 1160.08 423.72 1160.52 423.72Z" fill="white"/>
<defs>
<linearGradient id="paint0_linear_6002_1337" x1="605.113" y1="102" x2="854.553" y2="396.827" gradientUnits="userSpaceOnUse">
<stop stop-color="#303030"/>
<stop offset="1" stop-color="#FFB700"/>
</linearGradient>
<linearGradient id="paint1_linear_6002_1337" x1="660.65" y1="269" x2="770.163" y2="483.657" gradientUnits="userSpaceOnUse">
<stop stop-color="#303030"/>
<stop offset="1" stop-color="#FFB700"/>
</linearGradient>
<linearGradient id="paint2_linear_6002_1337" x1="613.66" y1="390" x2="614.95" y2="417.432" gradientUnits="userSpaceOnUse">
<stop stop-color="#303030"/>
<stop offset="1" stop-color="#FFB700"/>
</linearGradient>
<linearGradient id="paint3_linear_6002_1337" x1="690.242" y1="521" x2="767.93" y2="345.307" gradientUnits="userSpaceOnUse">
<stop stop-color="#303030"/>
<stop offset="1" stop-color="#FFB700"/>
</linearGradient>
<linearGradient id="paint4_linear_6002_1337" x1="715.129" y1="653" x2="934.449" y2="427.971" gradientUnits="userSpaceOnUse">
<stop stop-color="#303030"/>
<stop offset="1" stop-color="#FFB700"/>
</linearGradient>
<linearGradient id="paint5_linear_6002_1337" x1="628" y1="1.00001" x2="985.5" y2="296.5" gradientUnits="userSpaceOnUse">
<stop stop-color="#303030"/>
<stop offset="1" stop-color="#FFB700"/>
</linearGradient>
</defs>
</svg>
