<svg width="36" height="36" viewBox="0 0 36 36" fill="none" xmlns="http://www.w3.org/2000/svg">
<g clip-path="url(#clip0_6001_1301)">
<path d="M17.911 34.7215C16.3123 32.1301 14.7409 29.5806 13.1422 26.9884L10.1548 29.7889L7.31334 25.1848L3.45104 28.2969L3.39386 28.2576C3.54323 27.9461 3.69687 27.6371 3.84112 27.3238C5.47907 23.7739 6.14995 20.0269 6.13544 16.1364C6.12946 14.501 6.11922 12.8631 6.19946 11.2311C6.28481 9.51715 6.85498 7.9287 7.71706 6.37439C8.01922 6.75934 8.28638 7.11612 8.57061 7.45924C8.84204 7.78786 9.11773 8.11477 9.41732 8.41777C9.60681 8.60982 9.63498 8.76773 9.50268 9.00929C9.04517 9.86283 8.84801 10.771 9.05627 11.7287C9.41391 13.3752 10.9341 14.577 12.7888 14.7059C12.9706 14.7187 13.1525 14.728 13.3547 14.74C13.3206 15.2888 13.3052 15.8121 13.2421 16.3302C13.2276 16.4445 13.0611 16.5657 12.9382 16.6383C11.9208 17.2358 10.8965 17.8221 9.87569 18.4137C9.75619 18.4819 9.64266 18.5596 9.48561 18.6586C10.235 19.0794 10.9162 19.525 11.6476 19.8596C13.0987 20.5245 14.0145 21.6742 14.7025 23.0595C15.8036 25.2728 16.4949 27.6337 17.1872 29.992C17.4142 30.7645 17.6413 31.5378 17.9485 32.3043C18.3506 30.9454 18.7432 29.5832 19.1563 28.2277C19.7282 26.3499 20.3513 24.4943 21.2774 22.7514C21.9184 21.5393 22.7531 20.5433 24.0266 19.9398C24.7948 19.5753 25.5178 19.1153 26.3261 18.6595C26.1699 18.5579 26.053 18.4743 25.9283 18.4034C24.9041 17.8128 23.8875 17.2187 22.8607 16.6383C22.6541 16.5213 22.5568 16.3925 22.5534 16.1424C22.5466 15.69 22.4903 15.2385 22.451 14.7451C23.9968 14.699 25.371 14.2458 26.2663 12.8955C27.1958 11.494 26.9065 10.0788 26.181 8.71908L28.0963 6.41023C28.1621 6.51522 28.2338 6.61252 28.2892 6.71922C29.1428 8.37253 29.6472 10.1197 29.6677 11.9916C29.6899 13.9829 29.6677 15.9751 29.742 17.9664C29.866 21.4316 30.7264 24.8306 32.2659 27.9375C32.3249 28.0411 32.3502 28.1604 32.3385 28.2789L28.5043 25.1917L25.662 29.7948L22.6746 26.9935L17.911 34.7215Z" fill="white"/>
<path d="M29.1035 1.95996C28.9567 2.27578 28.8253 2.60013 28.6614 2.90741C27.8565 4.41904 26.7409 5.6857 25.5084 6.85506C23.9336 8.34962 22.2111 9.64189 20.283 10.6533C20.0149 10.7933 19.8272 10.7967 19.5574 10.6346C18.4478 9.96879 17.3263 9.98672 16.2081 10.6516C16.0733 10.7319 15.8368 10.7933 15.719 10.7302C12.2195 8.84467 9.22357 6.40182 7.16823 2.9313C7.0331 2.68193 6.91144 2.4255 6.80376 2.16311C6.77688 2.09996 6.75379 2.03526 6.73462 1.96936C6.92839 2.14541 7.13215 2.31012 7.3449 2.4627C7.8869 2.81607 8.43489 3.16432 9.00079 3.47843C9.24917 3.61585 9.49585 3.55183 9.72716 3.32564C11.9464 1.15592 14.6351 0.0514405 17.7147 0.0036419C20.8412 -0.0458638 23.5981 0.992902 25.9087 3.14042C26.4208 3.61756 26.5548 3.69096 27.1719 3.34357C27.7336 3.0269 28.2295 2.59244 28.7459 2.19725C28.8492 2.11873 28.9106 1.98557 28.9917 1.87803L29.1035 1.95996Z" fill="white"/>
<path d="M13.3548 18.6064C13.7816 18.3589 14.1597 18.1071 14.5651 17.915C15.0243 17.6965 15.1711 17.3782 15.1805 16.8694C15.1922 16.076 15.2719 15.285 15.4187 14.5051C15.5825 13.6567 16.0733 12.9687 16.7681 12.4447C17.5039 11.889 18.3156 11.8907 19.0505 12.4447C20.0953 13.2325 20.5015 14.3421 20.6099 15.5891C20.6474 16.0567 20.6579 16.5261 20.6415 16.9949C20.6313 17.3782 20.761 17.6445 21.105 17.828C21.5523 18.0661 21.9842 18.3307 22.4869 18.6209C19.6139 20.2922 18.8576 23.2002 17.917 26.1108C17.7992 25.7608 17.7224 25.4954 17.6225 25.2393C17.148 24.0239 16.7263 22.7845 16.1715 21.6058C15.6056 20.4023 14.6991 19.4548 13.5511 18.7566C13.4948 18.7216 13.4453 18.6756 13.3548 18.6064Z" fill="white"/>
<path d="M14.7929 12.3886C13.8464 13.1021 12.0616 12.9289 11.2695 12.0198C11.041 11.7545 10.9051 11.422 10.8823 11.0726C10.8595 10.7232 10.9511 10.3759 11.1432 10.0831L14.7929 12.3886Z" fill="white"/>
<path d="M24.6736 10.031C25.2173 11.115 24.8699 12.0966 23.7876 12.5695C22.8803 12.9664 21.7032 12.8793 20.9828 12.3612C21.6076 11.9984 22.2418 11.6545 22.8513 11.2704C23.4607 10.8863 24.0471 10.462 24.6736 10.031Z" fill="white"/>
</g>
<defs>
<clipPath id="clip0_6001_1301">
<rect width="28.9523" height="34.7223" fill="white" transform="translate(3.39386 0.00012207)"/>
</clipPath>
</defs>
</svg>
