<svg width="38" height="37" viewBox="0 0 38 37" fill="none" xmlns="http://www.w3.org/2000/svg">
<g clip-path="url(#clip0_6001_1308)">
<path d="M17.4331 27.3954C17.5754 27.3956 17.7163 27.4238 17.8477 27.4785C17.9791 27.5331 18.0985 27.6131 18.199 27.7139C18.2995 27.8147 18.3792 27.9343 18.4334 28.0659C18.4877 28.1974 18.5156 28.3384 18.5153 28.4807C18.5151 28.6231 18.4869 28.764 18.4323 28.8954C18.3776 29.0268 18.2976 29.1461 18.1968 29.2466C18.096 29.3471 17.9765 29.4268 17.8449 29.4811C17.7133 29.5354 17.5723 29.5632 17.43 29.563C17.1426 29.5626 16.8671 29.448 16.6641 29.2445C16.4612 29.0409 16.3474 28.7651 16.3478 28.4777C16.3482 28.1902 16.4628 27.9147 16.6663 27.7117C16.8698 27.5088 17.1457 27.395 17.4331 27.3954ZM34.4284 20.6938C34.2861 20.6937 34.1452 20.6655 34.0137 20.611C33.8823 20.5564 33.7629 20.4765 33.6623 20.3758C33.5617 20.2751 33.482 20.1556 33.4276 20.024C33.3732 19.8925 33.3453 19.7515 33.3454 19.6092C33.3455 19.4669 33.3736 19.326 33.4282 19.1945C33.4828 19.0631 33.5627 18.9437 33.6634 18.8431C33.7641 18.7425 33.8836 18.6628 34.0152 18.6084C34.1467 18.554 34.2876 18.5261 34.43 18.5262C34.7174 18.5264 34.993 18.6408 35.1961 18.8442C35.3992 19.0476 35.5132 19.3233 35.513 19.6108C35.5128 19.8982 35.3984 20.1738 35.195 20.3769C34.9916 20.58 34.7159 20.694 34.4284 20.6938ZM34.4284 16.2599C33.5398 16.2608 32.6878 16.6141 32.0594 17.2425C31.431 17.8709 31.0777 18.7229 31.0768 19.6115C31.0768 19.9707 31.137 20.3284 31.2541 20.6768L20.1834 26.5706C19.8765 26.1249 19.4657 25.7605 18.9866 25.5089C18.5074 25.2572 17.9743 25.1258 17.4331 25.1261C16.1551 25.1261 14.9911 25.8584 14.4268 27.0007L4.48156 21.756C3.43014 21.2041 2.64389 19.4743 2.72714 17.8987C2.77031 17.077 3.05397 16.4388 3.48718 16.1921C3.7616 16.0379 4.09152 16.0503 4.44302 16.2337L4.50777 16.2692C7.14402 17.6567 15.7681 22.2 16.1319 22.368C16.6916 22.6286 17.003 22.7334 17.9588 22.2802L35.7866 13.0086C36.0487 12.9099 36.354 12.6586 36.354 12.2778C36.354 11.7506 35.8082 11.5424 35.8067 11.5424C34.7923 11.0568 33.2336 10.3276 31.7136 9.61536C28.4637 8.09374 24.7807 6.37015 23.1635 5.52224C21.7667 4.79149 20.6428 5.40815 20.4424 5.53149L20.0539 5.7242C12.7742 9.32399 3.03085 14.1494 2.47585 14.487C1.48456 15.0914 0.869433 16.2954 0.789266 17.7893C0.665933 20.1588 1.87306 22.6301 3.60127 23.5351L14.1185 28.9587C14.2344 29.7553 14.633 30.4838 15.2416 31.0108C15.8501 31.5379 16.628 31.8284 17.4331 31.8292C18.3124 31.8277 19.1559 31.4813 19.7824 30.8643C20.4089 30.2474 20.7682 29.4092 20.7831 28.5301L32.3672 22.2509C32.9531 22.7103 33.6823 22.9616 34.4284 22.9616C35.3171 22.9608 36.1691 22.6074 36.7975 21.979C37.4258 21.3506 37.7792 20.4986 37.78 19.61C37.7792 18.7213 37.4258 17.8693 36.7975 17.241C36.1691 16.6126 35.3171 16.2592 34.4284 16.2584" fill="white"/>
</g>
<defs>
<clipPath id="clip0_6001_1308">
<rect width="37" height="37" fill="white" transform="translate(0.780029)"/>
</clipPath>
</defs>
</svg>
