<svg width="256" height="256" viewBox="0 0 256 256" fill="none" xmlns="http://www.w3.org/2000/svg">
<g clip-path="url(#clip0_6005_1989)">
<g filter="url(#filter0_f_6005_1989)">
<path d="M134.912 244.204C198.384 244.204 249.839 193.093 249.839 130.046C249.839 66.9976 198.384 15.8872 134.912 15.8872C71.4392 15.8872 19.9846 66.9976 19.9846 130.046C19.9846 193.093 71.4392 244.204 134.912 244.204Z" stroke="#FFB700" stroke-width="0.598578" stroke-miterlimit="10" stroke-linecap="round"/>
</g>
<path d="M134.912 244.204C198.384 244.204 249.839 193.093 249.839 130.046C249.839 66.9976 198.384 15.8872 134.912 15.8872C71.4392 15.8872 19.9846 66.9976 19.9846 130.046C19.9846 193.093 71.4392 244.204 134.912 244.204Z" stroke="#FFB700" stroke-width="0.598578" stroke-miterlimit="10" stroke-linecap="round"/>
<path d="M1.08515 160.393C-5.74662 109.656 19.9843 56.3499 65.157 32.44C78.8254 25.0109 93.844 20.3545 109.34 18.7412C68.9559 32.7573 38.7556 71.6028 38.1491 113.873C37.7888 126.445 39.9596 138.962 44.5339 150.689C45.7248 153.698 46.2474 156.927 46.066 160.155C45.8846 163.383 45.0035 166.534 43.4829 169.392C41.9623 172.251 39.8382 174.749 37.2557 176.717C34.6732 178.685 31.6933 180.076 28.5198 180.794C25.3463 181.512 22.0541 181.541 18.8683 180.878C15.6826 180.216 12.6784 178.878 10.0613 176.956C7.44417 175.034 5.27577 172.573 3.70452 169.742C2.13327 166.91 1.19619 163.775 0.957332 160.551L1.08515 160.393Z" fill="url(#paint0_linear_6005_1989)"/>
<path d="M231.993 226.477C192.375 259.171 133.22 265.893 88.813 240.62C75.1788 233.136 63.1771 223.036 53.5049 210.907C86.9295 237.385 136.125 242.142 172.359 220.262C183.288 213.794 192.807 205.223 200.356 195.052C202.287 192.45 204.761 190.293 207.608 188.729C210.455 187.164 213.609 186.228 216.854 185.986C220.099 185.744 223.358 186.2 226.409 187.324C229.46 188.448 232.23 190.213 234.531 192.499C236.832 194.784 238.609 197.536 239.741 200.567C240.872 203.597 241.332 206.835 241.088 210.058C240.844 213.281 239.902 216.414 238.327 219.242C236.752 222.07 234.58 224.527 231.961 226.445L231.993 226.477Z" fill="url(#paint1_linear_6005_1989)"/>
<path d="M184.618 2.94937C230.716 25.7493 260.757 76.8034 255.394 127.382C253.924 142.776 249.388 157.727 242.049 171.365C245.668 157.442 246.454 142.942 244.36 128.714C242.266 114.486 237.334 100.816 229.854 88.5048C223.105 77.44 214.193 67.8304 203.644 60.2436C193.094 52.6567 181.121 47.2462 168.432 44.3317C165.256 43.6256 162.272 42.2467 159.682 40.2891C157.092 38.3315 154.958 35.8413 153.427 32.9891C151.895 30.1369 151.001 26.9898 150.807 23.763C150.613 20.5361 151.123 17.3057 152.301 14.2925C153.48 11.2793 155.299 8.55434 157.636 6.30411C159.972 4.05389 162.77 2.33151 165.839 1.25449C168.907 0.177471 172.174 -0.228745 175.415 0.0637916C178.656 0.356328 181.795 1.34062 184.618 2.94937Z" fill="url(#paint2_linear_6005_1989)"/>
<ellipse cx="134.081" cy="130.014" rx="60.6559" ry="60.2502" fill="url(#paint3_linear_6005_1989)"/>
</g>
<defs>
<filter id="filter0_f_6005_1989" x="14.1784" y="10.081" width="241.466" height="239.929" filterUnits="userSpaceOnUse" color-interpolation-filters="sRGB">
<feFlood flood-opacity="0" result="BackgroundImageFix"/>
<feBlend mode="normal" in="SourceGraphic" in2="BackgroundImageFix" result="shape"/>
<feGaussianBlur stdDeviation="2.75346" result="effect1_foregroundBlur_6005_1989"/>
</filter>
<linearGradient id="paint0_linear_6005_1989" x1="94.1763" y1="19.0265" x2="12.0317" y2="171.699" gradientUnits="userSpaceOnUse">
<stop stop-color="#FFB700"/>
<stop offset="0.0001" stop-color="#FF8A00"/>
<stop offset="1" stop-color="#FFB700"/>
</linearGradient>
<linearGradient id="paint1_linear_6005_1989" x1="215.129" y1="186.046" x2="203.876" y2="269.348" gradientUnits="userSpaceOnUse">
<stop stop-color="#FFB700"/>
<stop offset="0.0001" stop-color="#FF8A00"/>
<stop offset="1" stop-color="#FFB700"/>
</linearGradient>
<linearGradient id="paint2_linear_6005_1989" x1="241.417" y1="0.272368" x2="150.664" y2="154.301" gradientUnits="userSpaceOnUse">
<stop stop-color="#FFB700"/>
<stop offset="0.0001" stop-color="#FF8A00"/>
<stop offset="1" stop-color="#FFB700"/>
</linearGradient>
<linearGradient id="paint3_linear_6005_1989" x1="177.914" y1="69.9751" x2="131.483" y2="199.174" gradientUnits="userSpaceOnUse">
<stop stop-color="#FFB700"/>
<stop offset="0.0001" stop-color="#FF8A00"/>
<stop offset="1" stop-color="#FFB700"/>
</linearGradient>
<clipPath id="clip0_6005_1989">
<rect width="256" height="256" fill="white"/>
</clipPath>
</defs>
</svg>
