<svg width="570" height="449" viewBox="0 0 570 449" fill="none" xmlns="http://www.w3.org/2000/svg">
<path d="M1 29.9418L413.069 29.9418L569 29.9418V224.691L1 224.691L1 417.942L569 417.942" stroke="white" stroke-opacity="0.13" stroke-dasharray="15 15"/>
<path d="M1 29.9418L413.069 29.9418L569 29.9418V183.442" stroke="#FFB700" stroke-dasharray="15 15"/>
<rect x="201.25" y="0.351929" width="166.5" height="59.5" fill="#1A1A1B" stroke="#FFB700" stroke-width="0.5"/>
<path d="M280.108 27.2315H277.983C277.922 26.8831 277.811 26.5743 277.648 26.3054C277.485 26.0327 277.282 25.8016 277.04 25.6122C276.797 25.4228 276.521 25.2808 276.21 25.1861C275.903 25.0876 275.572 25.0384 275.216 25.0384C274.583 25.0384 274.023 25.1975 273.534 25.5156C273.045 25.83 272.663 26.2922 272.386 26.902C272.11 27.5081 271.972 28.2486 271.972 29.1236C271.972 30.0137 272.11 30.7637 272.386 31.3736C272.667 31.9797 273.049 32.438 273.534 32.7486C274.023 33.0554 274.581 33.2088 275.21 33.2088C275.559 33.2088 275.884 33.1634 276.188 33.0725C276.494 32.9778 276.769 32.8395 277.011 32.6577C277.258 32.4759 277.464 32.2524 277.631 31.9872C277.801 31.7221 277.919 31.419 277.983 31.0781L280.108 31.0895C280.028 31.6425 279.856 32.1615 279.591 32.6463C279.33 33.1312 278.987 33.5592 278.562 33.9304C278.138 34.2978 277.642 34.5857 277.074 34.794C276.506 34.9986 275.875 35.1009 275.182 35.1009C274.159 35.1009 273.246 34.8641 272.443 34.3906C271.64 33.9172 271.008 33.2334 270.545 32.3395C270.083 31.4456 269.852 30.3736 269.852 29.1236C269.852 27.8698 270.085 26.7978 270.551 25.9077C271.017 25.0137 271.652 24.33 272.455 23.8565C273.258 23.3831 274.167 23.1463 275.182 23.1463C275.83 23.1463 276.432 23.2372 276.989 23.419C277.545 23.6009 278.042 23.8679 278.477 24.2202C278.913 24.5687 279.271 24.9967 279.551 25.5043C279.835 26.0081 280.021 26.5838 280.108 27.2315ZM292.596 29.1236C292.596 30.3774 292.361 31.4512 291.892 32.3452C291.426 33.2353 290.789 33.9172 289.982 34.3906C289.179 34.8641 288.268 35.1009 287.249 35.1009C286.231 35.1009 285.318 34.8641 284.511 34.3906C283.708 33.9134 283.071 33.2297 282.602 32.3395C282.136 31.4456 281.903 30.3736 281.903 29.1236C281.903 27.8698 282.136 26.7978 282.602 25.9077C283.071 25.0137 283.708 24.33 284.511 23.8565C285.318 23.3831 286.231 23.1463 287.249 23.1463C288.268 23.1463 289.179 23.3831 289.982 23.8565C290.789 24.33 291.426 25.0137 291.892 25.9077C292.361 26.7978 292.596 27.8698 292.596 29.1236ZM290.477 29.1236C290.477 28.241 290.339 27.4967 290.062 26.8906C289.789 26.2808 289.41 25.8206 288.926 25.51C288.441 25.1956 287.882 25.0384 287.249 25.0384C286.617 25.0384 286.058 25.1956 285.573 25.51C285.089 25.8206 284.708 26.2808 284.431 26.8906C284.159 27.4967 284.022 28.241 284.022 29.1236C284.022 30.0062 284.159 30.7524 284.431 31.3622C284.708 31.9683 285.089 32.4285 285.573 32.7429C286.058 33.0535 286.617 33.2088 287.249 33.2088C287.882 33.2088 288.441 33.0535 288.926 32.7429C289.41 32.4285 289.789 31.9683 290.062 31.3622C290.339 30.7524 290.477 30.0062 290.477 29.1236ZM304.311 23.3054V34.9418H302.436L296.954 27.0156H296.857V34.9418H294.749V23.3054H296.635L302.113 31.2372H302.215V23.3054H304.311ZM316.331 23.3054V34.9418H314.456L308.973 27.0156H308.876V34.9418H306.768V23.3054H308.655L314.132 31.2372H314.234V23.3054H316.331ZM318.788 34.9418V23.3054H326.356V25.0725H320.896V28.2315H325.964V29.9986H320.896V33.1747H326.401V34.9418H318.788ZM338.627 27.2315H336.502C336.441 26.8831 336.329 26.5743 336.166 26.3054C336.004 26.0327 335.801 25.8016 335.559 25.6122C335.316 25.4228 335.04 25.2808 334.729 25.1861C334.422 25.0876 334.091 25.0384 333.735 25.0384C333.102 25.0384 332.541 25.1975 332.053 25.5156C331.564 25.83 331.182 26.2922 330.905 26.902C330.629 27.5081 330.49 28.2486 330.49 29.1236C330.49 30.0137 330.629 30.7637 330.905 31.3736C331.185 31.9797 331.568 32.438 332.053 32.7486C332.541 33.0554 333.1 33.2088 333.729 33.2088C334.077 33.2088 334.403 33.1634 334.706 33.0725C335.013 32.9778 335.288 32.8395 335.53 32.6577C335.776 32.4759 335.983 32.2524 336.149 31.9872C336.32 31.7221 336.437 31.419 336.502 31.0781L338.627 31.0895C338.547 31.6425 338.375 32.1615 338.11 32.6463C337.848 33.1312 337.505 33.5592 337.081 33.9304C336.657 34.2978 336.161 34.5857 335.593 34.794C335.024 34.9986 334.394 35.1009 333.701 35.1009C332.678 35.1009 331.765 34.8641 330.962 34.3906C330.159 33.9172 329.526 33.2334 329.064 32.3395C328.602 31.4456 328.371 30.3736 328.371 29.1236C328.371 27.8698 328.604 26.7978 329.07 25.9077C329.536 25.0137 330.17 24.33 330.973 23.8565C331.776 23.3831 332.685 23.1463 333.701 23.1463C334.348 23.1463 334.951 23.2372 335.507 23.419C336.064 23.6009 336.56 23.8679 336.996 24.2202C337.432 24.5687 337.79 24.9967 338.07 25.5043C338.354 26.0081 338.54 26.5838 338.627 27.2315ZM340.206 25.0725V23.3054H349.49V25.0725H345.893V34.9418H343.802V25.0725H340.206Z" fill="white"/>
<rect x="44" y="194.102" width="150" height="60" fill="#1A1A1B"/>
<rect x="44.5" y="194.602" width="149" height="59" stroke="#7E7E7E" stroke-opacity="0.16"/>
<path d="M119.773 220.214C119.705 219.639 119.428 219.192 118.943 218.874C118.458 218.555 117.864 218.396 117.159 218.396C116.644 218.396 116.193 218.48 115.807 218.646C115.424 218.813 115.125 219.042 114.909 219.334C114.697 219.625 114.591 219.957 114.591 220.328C114.591 220.639 114.665 220.906 114.812 221.129C114.964 221.349 115.157 221.533 115.392 221.68C115.627 221.824 115.873 221.944 116.131 222.038C116.388 222.129 116.625 222.203 116.841 222.26L118.023 222.578C118.326 222.658 118.663 222.768 119.034 222.908C119.409 223.048 119.767 223.239 120.108 223.482C120.453 223.72 120.737 224.027 120.96 224.402C121.184 224.777 121.295 225.237 121.295 225.783C121.295 226.411 121.131 226.98 120.801 227.487C120.475 227.995 119.998 228.398 119.369 228.697C118.744 228.997 117.985 229.146 117.091 229.146C116.258 229.146 115.536 229.012 114.926 228.743C114.32 228.474 113.843 228.099 113.494 227.618C113.15 227.137 112.955 226.578 112.909 225.942H114.364C114.402 226.381 114.549 226.745 114.807 227.033C115.068 227.317 115.398 227.529 115.795 227.669C116.197 227.805 116.629 227.874 117.091 227.874C117.629 227.874 118.112 227.786 118.54 227.612C118.968 227.434 119.307 227.188 119.557 226.874C119.807 226.555 119.932 226.184 119.932 225.76C119.932 225.374 119.824 225.059 119.608 224.817C119.392 224.574 119.108 224.377 118.756 224.226C118.403 224.074 118.023 223.942 117.614 223.828L116.182 223.419C115.273 223.158 114.553 222.785 114.023 222.3C113.492 221.815 113.227 221.18 113.227 220.396C113.227 219.745 113.403 219.177 113.756 218.692C114.112 218.203 114.589 217.824 115.188 217.555C115.79 217.283 116.462 217.146 117.205 217.146C117.955 217.146 118.621 217.281 119.205 217.55C119.788 217.815 120.25 218.179 120.591 218.641C120.936 219.103 121.117 219.627 121.136 220.214H119.773ZM123.772 228.942V217.305H125.181V223.078H125.318L130.545 217.305H132.386L127.499 222.555L132.386 228.942H130.681L126.636 223.533L125.181 225.169V228.942H123.772ZM134.37 228.942V217.305H141.392V218.555H135.779V222.487H141.029V223.737H135.779V227.692H141.483V228.942H134.37ZM143.456 218.555V217.305H152.183V218.555H148.524V228.942H147.115V218.555H143.456ZM163.397 220.942H161.988C161.905 220.536 161.759 220.18 161.551 219.874C161.346 219.567 161.096 219.309 160.801 219.101C160.509 218.889 160.185 218.73 159.829 218.624C159.473 218.518 159.102 218.464 158.715 218.464C158.011 218.464 157.372 218.643 156.801 218.999C156.232 219.355 155.78 219.879 155.443 220.572C155.109 221.266 154.943 222.116 154.943 223.124C154.943 224.131 155.109 224.982 155.443 225.675C155.78 226.368 156.232 226.893 156.801 227.249C157.372 227.605 158.011 227.783 158.715 227.783C159.102 227.783 159.473 227.73 159.829 227.624C160.185 227.518 160.509 227.36 160.801 227.152C161.096 226.94 161.346 226.68 161.551 226.374C161.759 226.063 161.905 225.707 161.988 225.305H163.397C163.291 225.9 163.098 226.432 162.818 226.902C162.537 227.372 162.189 227.771 161.772 228.101C161.355 228.427 160.888 228.675 160.369 228.845C159.854 229.016 159.302 229.101 158.715 229.101C157.723 229.101 156.84 228.858 156.068 228.374C155.295 227.889 154.687 227.199 154.244 226.305C153.801 225.411 153.579 224.351 153.579 223.124C153.579 221.896 153.801 220.836 154.244 219.942C154.687 219.048 155.295 218.358 156.068 217.874C156.84 217.389 157.723 217.146 158.715 217.146C159.302 217.146 159.854 217.232 160.369 217.402C160.888 217.572 161.355 217.822 161.772 218.152C162.189 218.478 162.537 218.875 162.818 219.345C163.098 219.811 163.291 220.343 163.397 220.942ZM165.834 228.942V217.305H167.243V222.487H173.448V217.305H174.857V228.942H173.448V223.737H167.243V228.942H165.834Z" fill="white"/>
<rect x="297" y="388.102" width="151" height="60" fill="#1A1A1B"/>
<rect x="297.5" y="388.602" width="150" height="59" stroke="#7E7E7E" stroke-opacity="0.16"/>
<path d="M366.409 411.305H368.091L372.045 420.964H372.182L376.136 411.305H377.818V422.942H376.5V414.101H376.386L372.75 422.942H371.477L367.841 414.101H367.727V422.942H366.409V411.305ZM382.213 411.305V422.942H380.803V411.305H382.213ZM394.425 411.305V422.942H393.061L386.721 413.805H386.607V422.942H385.198V411.305H386.561L392.925 420.464H393.039V411.305H394.425ZM396.768 412.555V411.305H405.496V412.555H401.837V422.942H400.427V412.555H396.768Z" fill="white"/>
<g clip-path="url(#clip0_6037_23)">
<path d="M337.5 399.942C331.613 399.942 327 402.577 327 405.942V412.509C325.641 412.149 324.121 411.942 322.5 411.942C316.613 411.942 312 414.577 312 417.942V429.942C312 433.306 316.613 435.942 322.5 435.942C328.387 435.942 333 433.306 333 429.942V429.364C334.4 429.736 335.933 429.942 337.5 429.942C343.387 429.942 348 427.306 348 423.942V405.942C348 402.577 343.387 399.942 337.5 399.942ZM337.5 401.442C342.378 401.442 346.5 403.503 346.5 405.942C346.5 408.381 342.378 410.442 337.5 410.442C332.622 410.442 328.5 408.381 328.5 405.942C328.5 403.503 332.622 401.442 337.5 401.442ZM322.5 413.442C327.378 413.442 331.5 415.503 331.5 417.942C331.5 420.381 327.378 422.442 322.5 422.442C317.622 422.442 313.5 420.381 313.5 417.942C313.5 415.503 317.622 413.442 322.5 413.442ZM313.5 421.062C315.32 422.799 318.628 423.942 322.5 423.942C326.372 423.942 329.68 422.799 331.5 421.062V423.942C331.5 426.381 327.378 428.442 322.5 428.442C317.622 428.442 313.5 426.381 313.5 423.942V421.062ZM322.5 434.442C317.622 434.442 313.5 432.381 313.5 429.942V427.062C315.32 428.799 318.628 429.942 322.5 429.942C326.372 429.942 329.68 428.799 331.5 427.062V429.942C331.5 432.381 327.378 434.442 322.5 434.442ZM337.5 428.442C335.914 428.442 334.371 428.218 333 427.809V423.366C334.398 423.738 335.929 423.94 337.5 423.94C341.372 423.94 344.68 422.797 346.5 421.06V423.94C346.5 426.379 342.378 428.442 337.5 428.442ZM337.5 422.442C335.909 422.442 334.371 422.215 333 421.806V417.942C333 417.742 332.982 417.546 332.949 417.352C334.356 417.733 335.894 417.942 337.5 417.942C341.372 417.942 344.68 416.799 346.5 415.062V417.942C346.5 420.381 342.378 422.442 337.5 422.442ZM337.5 416.442C335.536 416.442 333.693 416.112 332.121 415.506C331.344 414.481 330.087 413.614 328.5 412.992V409.063C330.32 410.8 333.628 411.943 337.5 411.943C341.372 411.943 344.68 410.8 346.5 409.063V411.943C346.5 414.382 342.378 416.443 337.5 416.443V416.442Z" fill="white"/>
</g>
<path d="M248.25 21.1019H222.75C221.031 21.1019 219.419 20.2514 218.442 18.8534C219.393 17.4929 220.969 16.6019 222.75 16.6019H251.25C251.664 16.6019 252 16.2659 252 15.8519C252 15.4379 251.664 15.1019 251.25 15.1019H222.75C219.023 15.1019 216 18.1244 216 21.8519V38.3519C216 42.0794 219.023 45.1019 222.75 45.1019H248.25C250.322 45.1019 252 43.4234 252 41.3519V24.8519C252 22.7804 250.322 21.1019 248.25 21.1019ZM250.5 41.3519C250.5 42.5924 249.491 43.6019 248.25 43.6019H222.75C219.855 43.6019 217.5 41.2469 217.5 38.3519V21.8519C217.5 21.3299 217.577 20.8259 217.719 20.3504C218.988 21.7634 220.815 22.6019 222.75 22.6019H248.25C249.491 22.6019 250.5 23.6114 250.5 24.8519V41.3519ZM247.5 33.1019C247.5 33.9299 246.828 34.6019 246 34.6019C245.172 34.6019 244.5 33.9299 244.5 33.1019C244.5 32.2739 245.172 31.6019 246 31.6019C246.828 31.6019 247.5 32.2739 247.5 33.1019Z" fill="white"/>
<g clip-path="url(#clip1_6037_23)">
<path d="M72.026 241.169C71.7515 241.663 71.2415 241.942 70.7135 241.942C70.4675 241.942 70.217 241.882 69.986 241.753C63.0035 237.874 59 231.382 59 223.942C59 214.016 67.0745 205.942 77 205.942C78.0965 205.942 79.1975 206.041 80.2715 206.239C81.086 206.389 81.626 207.17 81.476 207.985C81.326 208.801 80.543 209.342 79.73 209.189C78.8345 209.026 77.918 208.942 77.0015 208.942C68.729 208.942 62 215.671 62 223.942C62 230.261 65.441 235.796 71.4425 239.131C72.1655 239.534 72.428 240.446 72.0245 241.169H72.026ZM94.7045 220.67C94.556 219.856 93.7775 219.31 92.9585 219.466C92.144 219.616 91.604 220.397 91.754 221.212C91.9175 222.104 92.0015 223.022 92.0015 223.94C92.0015 228.904 87.965 232.94 83.0015 232.94C78.038 232.94 74.0015 228.904 74.0015 223.94C74.0015 223.111 73.3295 222.44 72.5015 222.44C71.6735 222.44 71.0015 223.111 71.0015 223.94C71.0015 230.557 76.385 235.94 83.0015 235.94C89.618 235.94 95.0015 230.557 95.0015 223.94C95.0015 222.841 94.9025 221.74 94.7045 220.669V220.67ZM78.7595 215.821L87.3185 207.26C89.018 205.561 91.982 205.561 93.683 207.26C95.4365 209.015 95.4365 211.868 93.683 213.623L85.1225 222.184C83.99 223.318 82.4825 223.942 80.8805 223.942H78.5015C77.6735 223.942 77.0015 223.271 77.0015 222.442V220.063C77.0015 218.461 77.627 216.953 78.7595 215.821ZM80.0015 220.942H80.8805C81.6695 220.942 82.4435 220.621 83.0015 220.063L91.562 211.502C92.147 210.917 92.147 209.966 91.562 209.381C90.995 208.813 90.0065 208.813 89.441 209.381L80.879 217.942C80.312 218.509 80 219.262 80 220.063V220.942H80.0015Z" fill="white"/>
</g>
<defs>
<clipPath id="clip0_6037_23">
<rect width="36" height="36" fill="white" transform="translate(312 399.942)"/>
</clipPath>
<clipPath id="clip1_6037_23">
<rect width="36" height="36" fill="white" transform="translate(59 205.942)"/>
</clipPath>
</defs>
</svg>
