<svg width="32" height="32" viewBox="0 0 32 32" fill="none" xmlns="http://www.w3.org/2000/svg">
<g clip-path="url(#clip0_6005_1989)">
<g filter="url(#filter0_f_6005_1989)">
<path d="M16.8639 30.5254C24.798 30.5254 31.2298 24.1366 31.2298 16.2556C31.2298 8.37464 24.798 1.98584 16.8639 1.98584C8.92987 1.98584 2.49805 8.37464 2.49805 16.2556C2.49805 24.1366 8.92987 30.5254 16.8639 30.5254Z" stroke="#FFB700" stroke-width="0.598578" stroke-miterlimit="10" stroke-linecap="round"/>
</g>
<path d="M16.8639 30.5254C24.798 30.5254 31.2298 24.1366 31.2298 16.2556C31.2298 8.37464 24.798 1.98584 16.8639 1.98584C8.92987 1.98584 2.49805 8.37464 2.49805 16.2556C2.49805 24.1366 8.92987 30.5254 16.8639 30.5254Z" stroke="#FFB700" stroke-width="0.598578" stroke-miterlimit="10" stroke-linecap="round"/>
<path d="M0.135598 20.0492C-0.718373 13.7071 2.49799 7.04385 8.14458 4.05513C9.85313 3.12648 11.7304 2.54444 13.6674 2.34277C8.61944 4.09479 4.84441 8.95048 4.76859 14.2343C4.72356 15.8057 4.9949 17.3703 5.56669 18.8363C5.71555 19.2124 5.78088 19.616 5.75821 20.0195C5.73553 20.423 5.62539 20.8168 5.43532 21.1742C5.24524 21.5315 4.97973 21.8438 4.65692 22.0898C4.33411 22.3357 3.96161 22.5096 3.56493 22.5993C3.16825 22.6891 2.75671 22.6927 2.35849 22.6099C1.96027 22.5271 1.58476 22.3599 1.25762 22.1196C0.930476 21.8794 0.659425 21.5718 0.463019 21.2179C0.266613 20.8639 0.149478 20.472 0.119621 20.069L0.135598 20.0492Z" fill="url(#paint0_linear_6005_1989)"/>
<path d="M28.9992 28.3095C24.047 32.3962 16.6526 33.2365 11.1017 30.0774C9.39747 29.1419 7.89726 27.8794 6.68823 26.3633C10.8663 29.6731 17.0157 30.2676 21.5449 27.5326C22.9111 26.7242 24.101 25.6528 25.0446 24.3814C25.286 24.0561 25.5952 23.7865 25.9511 23.591C26.307 23.3954 26.7013 23.2784 27.1069 23.2481C27.5125 23.2178 27.9199 23.2749 28.3012 23.4154C28.6826 23.5559 29.0289 23.7765 29.3165 24.0622C29.6042 24.3479 29.8263 24.6919 29.9677 25.0707C30.1092 25.4495 30.1666 25.8542 30.1361 26.2571C30.1056 26.66 29.9879 27.0516 29.791 27.4051C29.5941 27.7587 29.3227 28.0658 28.9953 28.3056L28.9992 28.3095Z" fill="url(#paint1_linear_6005_1989)"/>
<path d="M23.0773 0.368794C28.8396 3.21879 32.5947 9.60055 31.9243 15.9229C31.7406 17.8472 31.1736 19.716 30.2562 21.4207C30.7086 19.6804 30.8068 17.8678 30.5451 16.0893C30.2833 14.3108 29.6669 12.6021 28.7319 11.0632C27.8883 9.68013 26.7742 8.47892 25.4556 7.53057C24.1369 6.58221 22.6403 5.9059 21.0541 5.54159C20.6571 5.45332 20.284 5.28096 19.9603 5.03626C19.6366 4.79156 19.3699 4.48029 19.1784 4.12376C18.987 3.76724 18.8753 3.37385 18.851 2.97049C18.8267 2.56714 18.8904 2.16334 19.0377 1.78669C19.185 1.41004 19.4125 1.06941 19.7046 0.788136C19.9966 0.506858 20.3464 0.29156 20.7299 0.156933C21.1135 0.0223059 21.5218 -0.028471 21.9269 0.00809602C22.3321 0.044663 22.7245 0.167699 23.0773 0.368794Z" fill="url(#paint2_linear_6005_1989)"/>
<ellipse cx="16.7602" cy="16.2515" rx="7.58199" ry="7.53128" fill="url(#paint3_linear_6005_1989)"/>
</g>
<defs>
<filter id="filter0_f_6005_1989" x="-3.30819" y="-3.8204" width="40.3442" height="40.152" filterUnits="userSpaceOnUse" color-interpolation-filters="sRGB">
<feFlood flood-opacity="0" result="BackgroundImageFix"/>
<feBlend mode="normal" in="SourceGraphic" in2="BackgroundImageFix" result="shape"/>
<feGaussianBlur stdDeviation="2.75346" result="effect1_foregroundBlur_6005_1989"/>
</filter>
<linearGradient id="paint0_linear_6005_1989" x1="11.772" y1="2.37843" x2="1.50391" y2="21.4625" gradientUnits="userSpaceOnUse">
<stop stop-color="#FFB700"/>
<stop offset="0.0001" stop-color="#FF8A00"/>
<stop offset="1" stop-color="#FFB700"/>
</linearGradient>
<linearGradient id="paint1_linear_6005_1989" x1="26.8913" y1="23.2556" x2="25.4846" y2="33.6684" gradientUnits="userSpaceOnUse">
<stop stop-color="#FFB700"/>
<stop offset="0.0001" stop-color="#FF8A00"/>
<stop offset="1" stop-color="#FFB700"/>
</linearGradient>
<linearGradient id="paint2_linear_6005_1989" x1="30.1772" y1="0.0341681" x2="18.8331" y2="19.2878" gradientUnits="userSpaceOnUse">
<stop stop-color="#FFB700"/>
<stop offset="0.0001" stop-color="#FF8A00"/>
<stop offset="1" stop-color="#FFB700"/>
</linearGradient>
<linearGradient id="paint3_linear_6005_1989" x1="22.2393" y1="8.74664" x2="16.4355" y2="24.8966" gradientUnits="userSpaceOnUse">
<stop stop-color="#FFB700"/>
<stop offset="0.0001" stop-color="#FF8A00"/>
<stop offset="1" stop-color="#FFB700"/>
</linearGradient>
<clipPath id="clip0_6005_1989">
<rect width="32" height="32" fill="white"/>
</clipPath>
</defs>
</svg>
